<mxfile host="app.diagrams.net" modified="2020-10-20T10:31:12.378Z" agent="5.0 (Windows NT 6.1; Win64; x64) AppleWebKit/537.36 (KHTML, like Gecko) Chrome/86.0.4240.75 Safari/537.36" etag="Z8fnKHkrERlh5LI0yZxy" version="13.8.0" type="github">
  <diagram id="C5RBs43oDa-KdzZeNtuy" name="Page-1">
    <mxGraphModel dx="868" dy="492" grid="1" gridSize="10" guides="1" tooltips="1" connect="1" arrows="1" fold="1" page="1" pageScale="1" pageWidth="827" pageHeight="1169" math="0" shadow="0">
      <root>
        <mxCell id="WIyWlLk6GJQsqaUBKTNV-0" />
        <mxCell id="WIyWlLk6GJQsqaUBKTNV-1" parent="WIyWlLk6GJQsqaUBKTNV-0" />
        <mxCell id="VJQYk0MbX0kbmWMW813a-4" value="" style="endArrow=block;endSize=16;endFill=0;html=1;entryX=0.443;entryY=0.038;entryDx=0;entryDy=0;entryPerimeter=0;exitX=1;exitY=0.5;exitDx=0;exitDy=0;" edge="1" parent="WIyWlLk6GJQsqaUBKTNV-1" source="VJQYk0MbX0kbmWMW813a-1" target="VJQYk0MbX0kbmWMW813a-5">
          <mxGeometry width="160" relative="1" as="geometry">
            <mxPoint x="370" y="190" as="sourcePoint" />
            <mxPoint x="480" y="280" as="targetPoint" />
            <Array as="points">
              <mxPoint x="432" y="349" />
            </Array>
          </mxGeometry>
        </mxCell>
        <mxCell id="VJQYk0MbX0kbmWMW813a-13" value="" style="endArrow=block;endSize=16;endFill=0;html=1;exitX=0;exitY=0.5;exitDx=0;exitDy=0;" edge="1" parent="WIyWlLk6GJQsqaUBKTNV-1" source="VJQYk0MbX0kbmWMW813a-1" target="VJQYk0MbX0kbmWMW813a-9">
          <mxGeometry width="160" relative="1" as="geometry">
            <mxPoint x="180" y="190" as="sourcePoint" />
            <mxPoint x="260" y="220" as="targetPoint" />
            <Array as="points">
              <mxPoint x="163" y="349" />
            </Array>
          </mxGeometry>
        </mxCell>
        <mxCell id="VJQYk0MbX0kbmWMW813a-0" value="BOOK" style="swimlane;fontStyle=0;childLayout=stackLayout;horizontal=1;startSize=26;fillColor=none;horizontalStack=0;resizeParent=1;resizeParentMax=0;resizeLast=0;collapsible=1;marginBottom=0;" vertex="1" parent="WIyWlLk6GJQsqaUBKTNV-1">
          <mxGeometry x="230" y="310" width="140" height="52" as="geometry" />
        </mxCell>
        <mxCell id="VJQYk0MbX0kbmWMW813a-1" value="+ field: type" style="text;strokeColor=none;fillColor=none;align=left;verticalAlign=top;spacingLeft=4;spacingRight=4;overflow=hidden;rotatable=0;points=[[0,0.5],[1,0.5]];portConstraint=eastwest;" vertex="1" parent="VJQYk0MbX0kbmWMW813a-0">
          <mxGeometry y="26" width="140" height="26" as="geometry" />
        </mxCell>
        <mxCell id="VJQYk0MbX0kbmWMW813a-32" value="" style="endArrow=diamondThin;endFill=0;endSize=24;html=1;entryX=0.25;entryY=0;entryDx=0;entryDy=0;" edge="1" parent="WIyWlLk6GJQsqaUBKTNV-1" source="VJQYk0MbX0kbmWMW813a-17" target="VJQYk0MbX0kbmWMW813a-0">
          <mxGeometry width="160" relative="1" as="geometry">
            <mxPoint x="330" y="260" as="sourcePoint" />
            <mxPoint x="256" y="310" as="targetPoint" />
            <Array as="points">
              <mxPoint x="265" y="199" />
            </Array>
          </mxGeometry>
        </mxCell>
        <mxCell id="VJQYk0MbX0kbmWMW813a-33" value="" style="endArrow=diamondThin;endFill=1;endSize=24;html=1;entryX=0.75;entryY=0;entryDx=0;entryDy=0;exitX=0;exitY=0.5;exitDx=0;exitDy=0;" edge="1" parent="WIyWlLk6GJQsqaUBKTNV-1" source="VJQYk0MbX0kbmWMW813a-25" target="VJQYk0MbX0kbmWMW813a-0">
          <mxGeometry width="160" relative="1" as="geometry">
            <mxPoint x="300" y="200" as="sourcePoint" />
            <mxPoint x="490" y="260" as="targetPoint" />
            <Array as="points">
              <mxPoint x="350" y="199" />
              <mxPoint x="335" y="199" />
              <mxPoint x="335" y="220" />
            </Array>
          </mxGeometry>
        </mxCell>
        <mxCell id="VJQYk0MbX0kbmWMW813a-34" value="has" style="endArrow=block;endSize=16;endFill=0;html=1;entryX=1;entryY=0.25;entryDx=0;entryDy=0;" edge="1" parent="WIyWlLk6GJQsqaUBKTNV-1" target="VJQYk0MbX0kbmWMW813a-0">
          <mxGeometry width="160" relative="1" as="geometry">
            <mxPoint x="580" y="323" as="sourcePoint" />
            <mxPoint x="490" y="260" as="targetPoint" />
            <Array as="points">
              <mxPoint x="550" y="323" />
            </Array>
          </mxGeometry>
        </mxCell>
        <mxCell id="VJQYk0MbX0kbmWMW813a-28" value="LIBRARY" style="swimlane;fontStyle=0;childLayout=stackLayout;horizontal=1;startSize=26;fillColor=none;horizontalStack=0;resizeParent=1;resizeParentMax=0;resizeLast=0;collapsible=1;marginBottom=0;" vertex="1" parent="WIyWlLk6GJQsqaUBKTNV-1">
          <mxGeometry x="580" y="290" width="140" height="52" as="geometry" />
        </mxCell>
        <mxCell id="VJQYk0MbX0kbmWMW813a-30" value="+ field: type" style="text;strokeColor=none;fillColor=none;align=left;verticalAlign=top;spacingLeft=4;spacingRight=4;overflow=hidden;rotatable=0;points=[[0,0.5],[1,0.5]];portConstraint=eastwest;" vertex="1" parent="VJQYk0MbX0kbmWMW813a-28">
          <mxGeometry y="26" width="140" height="26" as="geometry" />
        </mxCell>
        <mxCell id="VJQYk0MbX0kbmWMW813a-20" value="OWNER" style="swimlane;fontStyle=0;childLayout=stackLayout;horizontal=1;startSize=26;fillColor=none;horizontalStack=0;resizeParent=1;resizeParentMax=0;resizeLast=0;collapsible=1;marginBottom=0;" vertex="1" parent="WIyWlLk6GJQsqaUBKTNV-1">
          <mxGeometry x="580" y="160" width="140" height="52" as="geometry" />
        </mxCell>
        <mxCell id="VJQYk0MbX0kbmWMW813a-21" value="+ field: type" style="text;strokeColor=none;fillColor=none;align=left;verticalAlign=top;spacingLeft=4;spacingRight=4;overflow=hidden;rotatable=0;points=[[0,0.5],[1,0.5]];portConstraint=eastwest;" vertex="1" parent="VJQYk0MbX0kbmWMW813a-20">
          <mxGeometry y="26" width="140" height="26" as="geometry" />
        </mxCell>
        <mxCell id="VJQYk0MbX0kbmWMW813a-24" value="PUBLISHER" style="swimlane;fontStyle=0;childLayout=stackLayout;horizontal=1;startSize=26;fillColor=none;horizontalStack=0;resizeParent=1;resizeParentMax=0;resizeLast=0;collapsible=1;marginBottom=0;" vertex="1" parent="WIyWlLk6GJQsqaUBKTNV-1">
          <mxGeometry x="370" y="160" width="140" height="52" as="geometry" />
        </mxCell>
        <mxCell id="VJQYk0MbX0kbmWMW813a-25" value="+ field: type" style="text;strokeColor=none;fillColor=none;align=left;verticalAlign=top;spacingLeft=4;spacingRight=4;overflow=hidden;rotatable=0;points=[[0,0.5],[1,0.5]];portConstraint=eastwest;" vertex="1" parent="VJQYk0MbX0kbmWMW813a-24">
          <mxGeometry y="26" width="140" height="26" as="geometry" />
        </mxCell>
        <mxCell id="VJQYk0MbX0kbmWMW813a-16" value="AUTHOR" style="swimlane;fontStyle=0;childLayout=stackLayout;horizontal=1;startSize=26;fillColor=none;horizontalStack=0;resizeParent=1;resizeParentMax=0;resizeLast=0;collapsible=1;marginBottom=0;" vertex="1" parent="WIyWlLk6GJQsqaUBKTNV-1">
          <mxGeometry x="90" y="160" width="140" height="52" as="geometry" />
        </mxCell>
        <mxCell id="VJQYk0MbX0kbmWMW813a-17" value="+ field: type" style="text;strokeColor=none;fillColor=none;align=left;verticalAlign=top;spacingLeft=4;spacingRight=4;overflow=hidden;rotatable=0;points=[[0,0.5],[1,0.5]];portConstraint=eastwest;" vertex="1" parent="VJQYk0MbX0kbmWMW813a-16">
          <mxGeometry y="26" width="140" height="26" as="geometry" />
        </mxCell>
        <mxCell id="VJQYk0MbX0kbmWMW813a-5" value="FICTION" style="swimlane;fontStyle=0;childLayout=stackLayout;horizontal=1;startSize=26;fillColor=none;horizontalStack=0;resizeParent=1;resizeParentMax=0;resizeLast=0;collapsible=1;marginBottom=0;" vertex="1" parent="WIyWlLk6GJQsqaUBKTNV-1">
          <mxGeometry x="370" y="420" width="140" height="52" as="geometry" />
        </mxCell>
        <mxCell id="VJQYk0MbX0kbmWMW813a-6" value="+ field: type" style="text;strokeColor=none;fillColor=none;align=left;verticalAlign=top;spacingLeft=4;spacingRight=4;overflow=hidden;rotatable=0;points=[[0,0.5],[1,0.5]];portConstraint=eastwest;" vertex="1" parent="VJQYk0MbX0kbmWMW813a-5">
          <mxGeometry y="26" width="140" height="26" as="geometry" />
        </mxCell>
        <mxCell id="VJQYk0MbX0kbmWMW813a-9" value="MYSTERY" style="swimlane;fontStyle=0;childLayout=stackLayout;horizontal=1;startSize=26;fillColor=none;horizontalStack=0;resizeParent=1;resizeParentMax=0;resizeLast=0;collapsible=1;marginBottom=0;" vertex="1" parent="WIyWlLk6GJQsqaUBKTNV-1">
          <mxGeometry x="90" y="420" width="140" height="52" as="geometry" />
        </mxCell>
        <mxCell id="VJQYk0MbX0kbmWMW813a-10" value="+ field: type" style="text;strokeColor=none;fillColor=none;align=left;verticalAlign=top;spacingLeft=4;spacingRight=4;overflow=hidden;rotatable=0;points=[[0,0.5],[1,0.5]];portConstraint=eastwest;" vertex="1" parent="VJQYk0MbX0kbmWMW813a-9">
          <mxGeometry y="26" width="140" height="26" as="geometry" />
        </mxCell>
        <mxCell id="VJQYk0MbX0kbmWMW813a-36" value="have" style="endArrow=block;endSize=16;endFill=0;html=1;entryX=0.5;entryY=0;entryDx=0;entryDy=0;" edge="1" parent="WIyWlLk6GJQsqaUBKTNV-1" source="VJQYk0MbX0kbmWMW813a-21" target="VJQYk0MbX0kbmWMW813a-28">
          <mxGeometry x="-0.0256" y="20" width="160" relative="1" as="geometry">
            <mxPoint x="540" y="240" as="sourcePoint" />
            <mxPoint x="700" y="240" as="targetPoint" />
            <mxPoint as="offset" />
          </mxGeometry>
        </mxCell>
      </root>
    </mxGraphModel>
  </diagram>
</mxfile>
